<?xml version="1.0" standalone="no"?><svg xmlns="http://www.w3.org/2000/svg" viewBox="0 0 1440 320"><path fill="#eeeeee" fill-opacity="0.7" d="M0,0L40,26.7C80,53,160,107,240,133.3C320,160,400,160,480,154.7C560,149,640,139,720,122.7C800,107,880,85,960,85.3C1040,85,1120,107,1200,128C1280,149,1360,171,1400,181.3L1440,192L1440,320L1400,320C1360,320,1280,320,1200,320C1120,320,1040,320,960,320C880,320,800,320,720,320C640,320,560,320,480,320C400,320,320,320,240,320C160,320,80,320,40,320L0,320Z"></path></svg>